<?xml version="1.0" encoding="utf-8"?>
<!-- Generator: Adobe Illustrator 18.0.0, SVG Export Plug-In . SVG Version: 6.00 Build 0)  -->
<!DOCTYPE svg PUBLIC "-//W3C//DTD SVG 1.1//EN" "http://www.w3.org/Graphics/SVG/1.1/DTD/svg11.dtd">
<svg version="1.1" id="Layer_1" xmlns="http://www.w3.org/2000/svg" xmlns:xlink="http://www.w3.org/1999/xlink" x="0px" y="0px"
	 viewBox="6.3 166 436 144.2" enable-background="new 6.3 166 436 144.2" xml:space="preserve">
<g>
	<g>
		<path d="M79.2,204.4c-2.5,12.6-11.4,19.7-24.1,19.7h-22l-4.2,24.6c-0.1,0.9-0.6,1.2-1.4,1.2h-2c-0.9,0-1.2-0.3-0.9-1.2l11.2-64.1
			c0.1-0.9,0.4-1.2,1.3-1.2h25.2C74.8,183.5,81.5,191.6,79.2,204.4z M74.8,203.9c1.9-10.3-3.5-16.4-13.8-16.4H39.3l-5.7,32.6h21.6
			C65.7,220,72.9,214.1,74.8,203.9z"/>
		<path d="M138.3,202.5c-1.9,10.9-9.3,16.8-19.6,17.7c3.3,1.4,5.1,4.1,6.4,7.7l6.8,20.7c0.3,0.7,0.1,1.2-0.9,1.2h-1.9
			c-1.4,0-1.9-0.1-2.2-1l-6.4-19.3c-2-6.2-4.9-8.8-12.8-8.8H92.2l-4.9,28c-0.1,0.9-0.6,1.2-1.4,1.2h-2c-0.9,0-1.2-0.3-0.9-1.2
			l11.2-64.1c0.1-0.9,0.4-1.2,1.3-1.2h26.8C134.4,183.3,140.3,190.6,138.3,202.5z M121.5,187.4H98.2l-5.1,29.3h23.3
			c9.4,0,15.8-5.2,17.5-14.5C135.6,192.8,131.1,187.4,121.5,187.4z"/>
		<path d="M178.6,181.9c16.2,0,23.8,9.3,21.3,23.5l-3.9,22.9c-2.5,14.3-12.6,22.6-28.8,22.8c-16.5,0-24.1-9.1-21.6-23.5l4.1-22.9
			C151.9,190.5,162.2,182,178.6,181.9z M178,186c-13.6,0-22.2,7-24.2,19.1l-4.1,22.9c-2,12,4.1,19.1,17.7,19.1
			c13.5,0,22-7.1,24.1-19.1l3.9-22.9C197.7,193.1,191.6,186,178,186z"/>
		<path d="M258.6,184.4l-0.4,1.7c-0.1,0.9-0.4,1.2-1.3,1.2h-35.1l-4.8,27.7h30.6c0.9,0,1.2,0.3,0.9,1.2l-0.3,1.7
			c-0.1,0.9-0.4,1.2-1.4,1.2h-30.6l-5.1,29.6c-0.1,0.9-0.6,1.2-1.4,1.2h-2c-0.9,0-1.2-0.3-0.9-1.2l11.2-64.1
			c0.1-0.9,0.4-1.2,1.3-1.2l38.3-0.1C258.4,183.1,258.7,183.3,258.6,184.4z"/>
		<path d="M311.8,184.2l-0.4,1.7c-0.1,0.9-0.4,1.2-1.3,1.2H275l-4.6,26.8h31c0.9,0,1.2,0.3,1,1.2l-0.4,1.7c-0.1,0.9-0.4,1.2-1.4,1.2
			h-31l-4.8,27.7h36.4c0.9,0,1.2,0.3,0.9,1.2l-0.3,1.7c-0.1,0.9-0.4,1.2-1.4,1.2l-39.6,0.1c-0.9,0-1.2-0.3-0.9-1.2l11.2-64.1
			c0.1-0.9,0.4-1.2,1.3-1.2l38.3-0.1C311.6,183.1,311.9,183.3,311.8,184.2z"/>
		<path d="M366,184.1l-0.4,1.7c-0.1,0.9-0.4,1.2-1.3,1.2h-35.1l-4.6,26.8h31c0.9,0,1.2,0.3,1,1.2l-0.4,1.7c-0.1,0.9-0.4,1.2-1.4,1.2
			h-31l-4.8,27.7h36.4c0.9,0,1.2,0.3,0.9,1.2l-0.3,1.7c-0.1,0.9-0.4,1.2-1.4,1.2l-39.6,0.1c-0.9,0-1.2-0.3-0.9-1.2l11.2-64.1
			c0.1-0.9,0.4-1.2,1.3-1.2l38.3-0.1C365.8,182.9,366.1,183.2,366,184.1z"/>
		<path d="M422.8,207.8l-2.9,17.1c-2.8,15.2-13.8,24.3-31.2,24.3h-19.3c-0.9,0-1.2-0.3-0.9-1.2l11.2-64.1c0.1-0.9,0.4-1.2,1.3-1.2
			h19.1C417.4,182.8,425.6,192.6,422.8,207.8z M399.5,186.8h-16.1l-10.1,58.4h16.1c14.6,0,24.1-7.7,26.4-20.7l2.9-17.1
			C420.9,194.5,414.1,186.8,399.5,186.8z"/>
	</g>
	<g>
		<path fill="#59CC56" d="M48.4,278.3h5.4c2.6,0,4.6,1.7,4.6,4.6c0,2.9-1.9,4.6-4.6,4.6h-3.3v5.4h-2L48.4,278.3L48.4,278.3z
			 M53.5,285.7c1.7,0,2.9-1.2,2.9-2.9s-1.2-2.8-2.8-2.8h-3v5.7H53.5z"/>
		<path fill="#59CC56" d="M65.3,278.3h4.6c1.4,0,2.2,0.1,2.8,0.4c1.4,0.6,2.3,2,2.3,3.8c0,1.9-1,3.5-2.6,4.1l0,0
			c0,0,0.1,0.1,0.4,0.7l3,5.7h-2.3l-3-5.8h-3.2v5.8h-2V278.3z M70.2,285.2c1.6,0,2.6-1,2.6-2.8c0-1-0.4-1.9-1.3-2.3
			c-0.4-0.1-0.9-0.3-1.7-0.3h-2.5v5.2h2.9V285.2z"/>
		<path fill="#59CC56" d="M88.9,278c4.3,0,7.5,3.2,7.5,7.4c0,4.3-3.2,7.7-7.5,7.7s-7.5-3.3-7.5-7.7C81.3,281.3,84.5,278,88.9,278z
			 M88.9,291.2c3,0,5.4-2.5,5.4-5.8c0-3.2-2.3-5.7-5.4-5.7c-3.2,0-5.4,2.5-5.4,5.7C83.5,288.7,85.7,291.2,88.9,291.2z"/>
		<path fill="#59CC56" d="M103.5,278.3h8.1v1.7h-5.9v4.8h5.1v1.7h-5.1v6.2h-2v-14.5H103.5z"/>
		<path fill="#59CC56" d="M118.3,278.3h8.6v1.7h-6.5v4.6h5.2v1.7h-5.2v4.6h6.8v1.7h-8.8V278.3z"/>
		<path fill="#59CC56" d="M134.2,289.6c0.9,0.9,2.3,1.6,3.6,1.6c1.6,0,2.6-0.9,2.6-2c0-3.2-7.1-2.5-7.1-7.1c0-2.5,2-4.1,4.8-4.1
			c1.4,0,3,0.4,4.1,1.4l-0.9,1.7c-0.9-0.7-2-1.3-3.2-1.3c-1.4,0-2.6,0.9-2.6,2c0,3.2,7.1,2.3,7.1,7c0,2.3-1.7,4.2-4.6,4.2
			c-1.7,0-3.5-0.7-4.8-1.9L134.2,289.6z"/>
		<path fill="#59CC56" d="M149.6,289.6c0.9,0.9,2.3,1.6,3.6,1.6c1.6,0,2.6-0.9,2.6-2c0-3.2-7.1-2.5-7.1-7.1c0-2.5,2-4.1,4.8-4.1
			c1.4,0,3,0.4,4.1,1.4l-0.9,1.7c-0.9-0.7-2-1.3-3.2-1.3c-1.4,0-2.6,0.9-2.6,2c0,3.2,7.1,2.3,7.1,7c0,2.3-1.7,4.2-4.6,4.2
			c-1.7,0-3.5-0.7-4.8-1.9L149.6,289.6z"/>
		<path fill="#59CC56" d="M165,278.3h2v14.6h-2V278.3z"/>
		<path fill="#59CC56" d="M181.6,278c4.3,0,7.5,3.2,7.5,7.4c0,4.3-3.2,7.7-7.5,7.7c-4.3,0-7.5-3.3-7.5-7.7
			C174.1,281.3,177.3,278,181.6,278z M181.6,291.2c3,0,5.4-2.5,5.4-5.8c0-3.2-2.3-5.7-5.4-5.7c-3.2,0-5.4,2.5-5.4,5.7
			C176.3,288.7,178.6,291.2,181.6,291.2z"/>
		<path fill="#59CC56" d="M196.3,278.3h2l6.5,9.4c0.6,0.9,1.2,2.2,1.2,2.2l0,0c0,0-0.1-1.3-0.1-2.2v-9.4h2v14.6h-2l-6.5-9.4
			c-0.6-0.9-1.2-2.2-1.2-2.2l0,0c0,0,0.1,1.3,0.1,2.2v9.4h-2V278.3z"/>
		<path fill="#59CC56" d="M219.6,278.3h2.2l5.2,14.6h-2l-1.4-4.2H218l-1.4,4.2h-2L219.6,278.3z M222.9,287l-1.6-4.6
			c-0.3-0.7-0.6-2-0.6-2l0,0c0,0-0.3,1.3-0.6,2l-1.6,4.6H222.9z"/>
		<path fill="#59CC56" d="M233.4,278.3h2v12.9h6.5v1.7h-8.6V278.3z"/>
		<path fill="#59CC56" d="M257.3,278.3h8.1v1.7h-5.9v4.8h5.1v1.7h-5.1v6.2h-2v-14.5H257.3z"/>
		<path fill="#59CC56" d="M272.1,278.3h8.6v1.7h-6.5v4.6h5.2v1.7h-5.2v4.6h6.8v1.7h-8.8V278.3z"/>
		<path fill="#59CC56" d="M287.9,278.3h8.6v1.7h-6.5v4.6h5.2v1.7h-5.2v4.6h6.8v1.7h-8.8V278.3z"/>
		<path fill="#59CC56" d="M303.7,278.3h4.9c4.5,0,7.4,2.6,7.4,7.2c0,4.6-2.9,7.4-7.4,7.4h-4.9V278.3z M308.4,291
			c3.3,0,5.4-1.9,5.4-5.5c0-3.6-2.2-5.5-5.4-5.5h-2.6v11H308.4z"/>
		<path fill="#59CC56" d="M335.3,280h-5.1v-1.7h12v1.7h-5.1v12.9h-2V280H335.3z"/>
		<path fill="#59CC56" d="M354.7,278c4.3,0,7.5,3.2,7.5,7.4c0,4.3-3.2,7.7-7.5,7.7c-4.3,0-7.5-3.3-7.5-7.7
			C347.1,281.3,350.3,278,354.7,278z M354.7,291.2c3,0,5.4-2.5,5.4-5.8c0-3.2-2.3-5.7-5.4-5.7c-3.2,0-5.4,2.5-5.4,5.7
			C349.3,288.7,351.6,291.2,354.7,291.2z"/>
		<path fill="#59CC56" d="M376,278c4.3,0,7.5,3.2,7.5,7.4c0,4.3-3.2,7.7-7.5,7.7c-4.3,0-7.5-3.3-7.5-7.7
			C368.5,281.3,371.6,278,376,278z M376,291.2c3,0,5.4-2.5,5.4-5.8c0-3.2-2.3-5.7-5.4-5.7c-3.2,0-5.4,2.5-5.4,5.7
			C370.5,288.7,372.8,291.2,376,291.2z"/>
		<path fill="#59CC56" d="M390.5,278.3h2v12.9h6.5v1.7h-8.6L390.5,278.3L390.5,278.3z"/>
	</g>
</g>
</svg>
