<?xml version="1.0" encoding="utf-8"?>
<!-- Generator: Adobe Illustrator 18.0.0, SVG Export Plug-In . SVG Version: 6.00 Build 0)  -->
<!DOCTYPE svg PUBLIC "-//W3C//DTD SVG 1.0//EN" "http://www.w3.org/TR/2001/REC-SVG-20010904/DTD/svg10.dtd">
<svg version="1.0" id="Layer_1" xmlns="http://www.w3.org/2000/svg" xmlns:xlink="http://www.w3.org/1999/xlink" x="0px" y="0px"
	 viewBox="0 0 580.9 255.1" enable-background="new 0 0 580.9 255.1" xml:space="preserve">
<g>
	<path fill="#5ECA5C" d="M258.5,32.6c0,0-31.1,45.1-56.9,48.7l-6,0c-0.2,0-0.3,0-0.5-0.1l0,0.1L135,81.5l-60.6-0.2l0-0.1
		c-0.2,0-0.3,0-0.5,0.1l-6,0c-25.7-3.6-56.8-48.7-56.8-48.7c3.1,43.5,39.4,61.6,50.6,66.1l30.9,45.9l10.1-37.6h45c0.3,0,0.7,0,1.1,0
		c0.4,0,0.8,0.1,1.2,0.1c0.4,0.1,0.8,0.1,1.2,0.3c0.4,0.1,0.8,0.2,1.2,0.3c0.3,0.1,0.7,0.3,1,0.5c0.3,0.2,0.6,0.4,0.9,0.6
		c0.3,0.2,0.6,0.5,0.9,0.8c0.3,0.3,0.5,0.5,0.8,0.8c0.2,0.3,0.3,0.6,0.5,0.8c0.1,0.2,0.2,0.3,0.2,0.5l1.2-4.6h45l5.7-8.5
		C220.5,93.5,255.5,75.3,258.5,32.6z"/>
	<polygon fill="#5ECA5C" points="163.2,165.9 179.7,141.4 169.8,141.4 	"/>
	<polygon fill="#5ECA5C" points="172.7,131.2 186.6,131.2 196.3,116.8 176.6,116.8 	"/>
	<path fill="#5ECA5C" d="M148.7,141.5c-0.1,0.2-0.3,0.3-0.4,0.5c-0.3,0.3-0.6,0.5-0.9,0.8c-0.3,0.2-0.7,0.5-1,0.7
		c-0.3,0.2-0.7,0.4-0.9,0.6c-0.3,0.2-0.7,0.4-1.1,0.6c-0.4,0.2-0.8,0.4-1.1,0.5c-0.5,0.2-1,0.3-1.5,0.4c-0.5,0.1-0.9,0.2-1.4,0.3
		c-0.4,0.1-0.8,0.2-1.4,0.2s-1,0-1.4,0h-24.4l-5.7,21l27.5,40.8l26.9-40h-20.3L148.7,141.5z"/>
	<path fill="#5ECA5C" d="M129.5,135.6c0.2-0.1,0.4-0.2,0.6-0.3c0.2-0.2,0.4-0.3,0.5-0.5c0.1-0.2,0.3-0.4,0.4-0.6
		c0.2-0.2,0.3-0.4,0.4-0.6c0.1-0.2,0.1-0.4,0.2-0.6c0.1-0.2,0.2-0.4,0.2-0.6l3.4-12.6c0.1-0.2,0.1-0.4,0.1-0.6c0-0.2,0-0.4,0-0.6
		c0-0.2,0-0.3-0.1-0.5c-0.1-0.2-0.2-0.3-0.2-0.4c-0.1-0.1-0.1-0.2-0.3-0.3s-0.2-0.2-0.3-0.3c-0.1-0.1-0.3-0.1-0.4-0.2
		c-0.2-0.1-0.3-0.1-0.4-0.1H121l-5.1,18.9h12.6c0.2,0,0.4,0,0.6-0.1C129.2,135.8,129.3,135.7,129.5,135.6z"/>
</g>
<g>
	<g>
		<path d="M296.4,126.3c-1.7,8.7-7.9,13.6-16.6,13.6l-15.2,0l-2.9,17c-0.1,0.6-0.4,0.8-1,0.8l-1.4,0c-0.6,0-0.8-0.2-0.6-0.8
			l7.7-44.2c0.1-0.6,0.3-0.8,0.9-0.8l17.4,0C293.4,111.9,298,117.5,296.4,126.3z M293.4,126c1.3-7.1-2.4-11.3-9.5-11.3l-15,0
			l-3.9,22.5l14.9,0C287.1,137.1,292.1,133,293.4,126z"/>
		<path d="M337.2,125c-1.3,7.5-6.4,11.6-13.5,12.2c2.3,1,3.5,2.8,4.4,5.3l4.7,14.3c0.2,0.5,0.1,0.8-0.6,0.8l-1.3,0
			c-1,0-1.3-0.1-1.5-0.7l-4.4-13.3c-1.4-4.3-3.4-6.1-8.8-6.1l-10.8,0l-3.4,19.3c-0.1,0.6-0.4,0.8-1,0.8l-1.4,0
			c-0.6,0-0.8-0.2-0.6-0.8l7.7-44.2c0.1-0.6,0.3-0.8,0.9-0.8l18.5,0C334.5,111.8,338.6,116.8,337.2,125z M325.6,114.6l-16.1,0
			l-3.5,20.2l16.1,0c6.5,0,10.9-3.6,12.1-10C335.3,118.3,332.2,114.6,325.6,114.6z"/>
		<path d="M365,110.8c11.2,0,16.4,6.4,14.7,16.2l-2.7,15.8c-1.7,9.9-8.7,15.6-19.9,15.7c-11.4,0-16.6-6.3-14.9-16.2l2.8-15.8
			C346.6,116.7,353.7,110.9,365,110.8z M364.6,113.6c-9.4,0-15.3,4.8-16.7,13.2l-2.8,15.8c-1.4,8.3,2.8,13.2,12.2,13.2
			c9.3,0,15.2-4.9,16.6-13.2l2.7-15.8C378.2,118.5,374,113.6,364.6,113.6z"/>
		<path d="M420.2,112.5l-0.3,1.2c-0.1,0.6-0.3,0.8-0.9,0.8l-24.2,0l-3.3,19.1l21.1,0c0.6,0,0.8,0.2,0.6,0.8l-0.2,1.2
			c-0.1,0.6-0.3,0.8-1,0.8l-21.1,0l-3.5,20.4c-0.1,0.6-0.4,0.8-1,0.8l-1.4,0c-0.6,0-0.8-0.2-0.6-0.8l7.7-44.2
			c0.1-0.6,0.3-0.8,0.9-0.8l26.4-0.1C420.1,111.6,420.3,111.8,420.2,112.5z"/>
		<path d="M456.9,112.4l-0.3,1.2c-0.1,0.6-0.3,0.8-0.9,0.8l-24.2,0l-3.2,18.5l21.4,0c0.6,0,0.8,0.2,0.7,0.8l-0.3,1.2
			c-0.1,0.6-0.3,0.8-1,0.8l-21.4,0l-3.3,19.1l25.1,0c0.6,0,0.8,0.2,0.6,0.8l-0.2,1.2c-0.1,0.6-0.3,0.8-1,0.8l-27.3,0.1
			c-0.6,0-0.8-0.2-0.6-0.8l7.7-44.2c0.1-0.6,0.3-0.8,0.9-0.8l26.4-0.1C456.8,111.6,457,111.8,456.9,112.4z"/>
		<path d="M494.3,112.3l-0.3,1.2c-0.1,0.6-0.3,0.8-0.9,0.8l-24.2,0l-3.2,18.5l21.4,0c0.6,0,0.8,0.2,0.7,0.8l-0.3,1.2
			c-0.1,0.6-0.3,0.8-1,0.8l-21.4,0l-3.3,19.1l25.1,0c0.6,0,0.8,0.2,0.6,0.8l-0.2,1.2c-0.1,0.6-0.3,0.8-1,0.8l-27.3,0.1
			c-0.6,0-0.8-0.2-0.6-0.8l7.7-44.2c0.1-0.6,0.3-0.8,0.9-0.8l26.4-0.1C494.2,111.5,494.4,111.7,494.3,112.3z"/>
		<path d="M533.5,128.7l-2,11.8c-1.9,10.5-9.5,16.8-21.5,16.8l-13.3,0c-0.6,0-0.8-0.2-0.6-0.8l7.7-44.2c0.1-0.6,0.3-0.8,0.9-0.8
			l13.2,0C529.8,111.4,535.4,118.2,533.5,128.7z M517.4,114.2l-11.1,0l-7,40.3l11.1,0c10.1,0,16.6-5.3,18.2-14.3l2-11.8
			C532.2,119.5,527.5,114.2,517.4,114.2z"/>
	</g>
	<g>
		<path fill="#59CC56" d="M275.2,177.3h3.7c1.8,0,3.2,1.2,3.2,3.2s-1.3,3.2-3.2,3.2h-2.3v3.7h-1.4V177.3z M278.7,182.4
			c1.2,0,2-0.8,2-2c0-1.2-0.8-1.9-1.9-1.9h-2.1v3.9H278.7z"/>
		<path fill="#59CC56" d="M286.8,177.3h3.2c1,0,1.5,0.1,1.9,0.3c1,0.4,1.6,1.4,1.6,2.6c0,1.3-0.7,2.4-1.8,2.8v0c0,0,0.1,0.1,0.3,0.5
			l2.1,3.9h-1.6l-2.1-4h-2.2v4h-1.4V177.3z M290.2,182.1c1.1,0,1.8-0.7,1.8-1.9c0-0.7-0.3-1.3-0.9-1.6c-0.3-0.1-0.6-0.2-1.2-0.2
			h-1.7v3.6H290.2z"/>
		<path fill="#59CC56" d="M303.1,177.1c3,0,5.2,2.2,5.2,5.1c0,3-2.2,5.3-5.2,5.3c-3,0-5.2-2.3-5.2-5.3
			C297.9,179.4,300.1,177.1,303.1,177.1z M303.1,186.2c2.1,0,3.7-1.7,3.7-4c0-2.2-1.6-3.9-3.7-3.9c-2.2,0-3.7,1.7-3.7,3.9
			C299.4,184.5,300.9,186.2,303.1,186.2z"/>
		<path fill="#59CC56" d="M313.2,177.3h5.6v1.2h-4.1v3.3h3.5v1.2h-3.5v4.3h-1.4V177.3z"/>
		<path fill="#59CC56" d="M323.4,177.3h5.9v1.2h-4.5v3.2h3.6v1.2h-3.6v3.2h4.7v1.2h-6.1V177.3z"/>
		<path fill="#59CC56" d="M334.4,185.1c0.6,0.6,1.6,1.1,2.5,1.1c1.1,0,1.8-0.6,1.8-1.4c0-2.2-4.9-1.7-4.9-4.9c0-1.7,1.4-2.8,3.3-2.8
			c1,0,2.1,0.3,2.8,1l-0.6,1.2c-0.6-0.5-1.4-0.9-2.2-0.9c-1,0-1.8,0.6-1.8,1.4c0,2.2,4.9,1.6,4.9,4.8c0,1.6-1.2,2.9-3.2,2.9
			c-1.2,0-2.4-0.5-3.3-1.3L334.4,185.1z"/>
		<path fill="#59CC56" d="M345,185.1c0.6,0.6,1.6,1.1,2.5,1.1c1.1,0,1.8-0.6,1.8-1.4c0-2.2-4.9-1.7-4.9-4.9c0-1.7,1.4-2.8,3.3-2.8
			c1,0,2.1,0.3,2.8,1l-0.6,1.2c-0.6-0.5-1.4-0.9-2.2-0.9c-1,0-1.8,0.6-1.8,1.4c0,2.2,4.9,1.6,4.9,4.8c0,1.6-1.2,2.9-3.2,2.9
			c-1.2,0-2.4-0.5-3.3-1.3L345,185.1z"/>
		<path fill="#59CC56" d="M355.6,177.3h1.4v10.1h-1.4V177.3z"/>
		<path fill="#59CC56" d="M367.1,177.1c3,0,5.2,2.2,5.2,5.1c0,3-2.2,5.3-5.2,5.3c-3,0-5.2-2.3-5.2-5.3
			C361.9,179.4,364.1,177.1,367.1,177.1z M367.1,186.2c2.1,0,3.7-1.7,3.7-4c0-2.2-1.6-3.9-3.7-3.9c-2.2,0-3.7,1.7-3.7,3.9
			C363.4,184.5,365,186.2,367.1,186.2z"/>
		<path fill="#59CC56" d="M377.2,177.3h1.4l4.5,6.5c0.4,0.6,0.8,1.5,0.8,1.5h0c0,0-0.1-0.9-0.1-1.5v-6.5h1.4v10.1h-1.4l-4.5-6.5
			c-0.4-0.6-0.8-1.5-0.8-1.5h0c0,0,0.1,0.9,0.1,1.5v6.5h-1.4V177.3z"/>
		<path fill="#59CC56" d="M393.3,177.3h1.5l3.6,10.1H397l-1-2.9h-3.8l-1,2.9h-1.4L393.3,177.3z M395.6,183.3l-1.1-3.2
			c-0.2-0.5-0.4-1.4-0.4-1.4h0c0,0-0.2,0.9-0.4,1.4l-1.1,3.2H395.6z"/>
		<path fill="#59CC56" d="M402.8,177.3h1.4v8.9h4.5v1.2h-5.9V177.3z"/>
		<path fill="#59CC56" d="M419.3,177.3h5.6v1.2h-4.1v3.3h3.5v1.2h-3.5v4.3h-1.4V177.3z"/>
		<path fill="#59CC56" d="M429.5,177.3h5.9v1.2h-4.5v3.2h3.6v1.2h-3.6v3.2h4.7v1.2h-6.1V177.3z"/>
		<path fill="#59CC56" d="M440.4,177.3h5.9v1.2h-4.5v3.2h3.6v1.2h-3.6v3.2h4.7v1.2h-6.1V177.3z"/>
		<path fill="#59CC56" d="M451.3,177.3h3.4c3.1,0,5.1,1.8,5.1,5c0,3.2-2,5.1-5.1,5.1h-3.4V177.3z M454.6,186.1
			c2.3,0,3.7-1.3,3.7-3.8c0-2.5-1.5-3.8-3.7-3.8h-1.8v7.6H454.6z"/>
		<path fill="#59CC56" d="M473.1,178.5h-3.5v-1.2h8.3v1.2h-3.5v8.9h-1.4V178.5z"/>
		<path fill="#59CC56" d="M486.5,177.1c3,0,5.2,2.2,5.2,5.1c0,3-2.2,5.3-5.2,5.3c-3,0-5.2-2.3-5.2-5.3
			C481.3,179.4,483.5,177.1,486.5,177.1z M486.5,186.2c2.1,0,3.7-1.7,3.7-4c0-2.2-1.6-3.9-3.7-3.9c-2.2,0-3.7,1.7-3.7,3.9
			C482.8,184.5,484.4,186.2,486.5,186.2z"/>
		<path fill="#59CC56" d="M501.2,177.1c3,0,5.2,2.2,5.2,5.1c0,3-2.2,5.3-5.2,5.3c-3,0-5.2-2.3-5.2-5.3
			C496,179.4,498.2,177.1,501.2,177.1z M501.2,186.2c2.1,0,3.7-1.7,3.7-4c0-2.2-1.6-3.9-3.7-3.9c-2.2,0-3.7,1.7-3.7,3.9
			C497.4,184.5,499,186.2,501.2,186.2z"/>
		<path fill="#59CC56" d="M511.2,177.3h1.4v8.9h4.5v1.2h-5.9V177.3z"/>
	</g>
</g>
</svg>
