<?xml version="1.0" encoding="utf-8"?>
<!-- Generator: Adobe Illustrator 18.0.0, SVG Export Plug-In . SVG Version: 6.00 Build 0)  -->
<!DOCTYPE svg PUBLIC "-//W3C//DTD SVG 1.1//EN" "http://www.w3.org/Graphics/SVG/1.1/DTD/svg11.dtd">
<svg version="1.1" id="Layer_1" xmlns="http://www.w3.org/2000/svg" xmlns:xlink="http://www.w3.org/1999/xlink" x="0px" y="0px"
	 viewBox="0 0 841.9 595.3" enable-background="new 0 0 841.9 595.3" xml:space="preserve">
<g>
	<path fill="#5ECA5C" d="M817.9,7c0,0-101.4,147-185.4,158.7h-19.6c-0.7,0-0.9,0-1.6-0.2v0.2l-195.8,0.7l-197.3-0.7v-0.2
		c-0.7,0-0.9,0-1.6,0.2h-19.6C113.6,154,12.2,7,12.2,7c10.1,141.6,128.3,200.7,164.7,215.3l100.7,149.5l32.8-122.5H457
		c0.9,0,2.2,0,3.6,0s2.7,0.2,3.8,0.2c1.3,0.2,2.7,0.2,3.8,0.9c1.3,0.2,2.7,0.7,3.8,0.9c0.9,0.2,2.2,0.9,3.1,1.6s2,1.3,2.9,2
		c0.9,0.7,2,1.6,2.9,2.7c0.9,0.9,1.6,1.6,2.7,2.7c0.7,0.9,0.9,2,1.6,2.7c0.2,0.7,0.7,0.9,0.7,1.6l3.8-15.1h146.5l18.7-27.6
		C694.3,205.4,808.2,146.1,817.9,7z"/>
	<polygon fill="#5ECA5C" points="507.5,441.2 561.3,361.4 529.1,361.4 	"/>
	<polygon fill="#5ECA5C" points="538.6,328.2 583.7,328.2 615.4,281.4 551.1,281.4 	"/>
	<path fill="#5ECA5C" d="M460.3,361.9c-0.2,0.7-0.9,0.9-1.3,1.6c-0.9,0.9-2,1.6-2.9,2.7c-0.9,0.7-2.2,1.6-3.1,2.2
		c-0.9,0.7-2.2,1.3-2.9,2c-0.9,0.7-2.2,1.3-3.6,2c-1.3,0.7-2.7,1.3-3.6,1.6c-1.6,0.7-3.1,0.9-4.9,1.3c-1.6,0.2-2.9,0.7-4.5,0.9
		c-1.3,0.2-2.7,0.7-4.5,0.7c-2,0-3.1,0-4.5,0h-79.6l-18.7,68.3l89.7,132.8l87.7-130.4h-66.1L460.3,361.9z"/>
	<path fill="#5ECA5C" d="M397.9,342.5c0.7-0.2,1.3-0.7,2-0.9c0.7-0.7,1.3-0.9,1.6-1.6c0.2-0.7,0.9-1.3,1.3-2c0.7-0.7,0.9-1.3,1.3-2
		c0.2-0.7,0.2-1.3,0.7-2c0.2-0.7,0.7-1.3,0.7-2l11-41.1c0.2-0.7,0.2-1.3,0.2-2s0-1.3,0-2s0-0.9-0.2-1.6c-0.2-0.7-0.7-0.9-0.7-1.3
		c-0.2-0.2-0.2-0.7-0.9-0.9c-0.7-0.2-0.7-0.7-0.9-0.9c-0.2-0.2-0.9-0.2-1.3-0.7c-0.7-0.2-0.9-0.2-1.3-0.2h-41.1l-16.6,61.6h41.1
		c0.7,0,1.3,0,2-0.2C396.7,343.2,397.2,343,397.9,342.5z"/>
</g>
</svg>
