<?xml version="1.0" encoding="utf-8"?>
<!-- Generator: Adobe Illustrator 18.0.0, SVG Export Plug-In . SVG Version: 6.00 Build 0)  -->
<!DOCTYPE svg PUBLIC "-//W3C//DTD SVG 1.0//EN" "http://www.w3.org/TR/2001/REC-SVG-20010904/DTD/svg10.dtd">
<svg version="1.0" xmlns="http://www.w3.org/2000/svg" xmlns:xlink="http://www.w3.org/1999/xlink" x="0px" y="0px"
	 viewBox="0 0 360 210.5" enable-background="new 0 0 360 210.5" xml:space="preserve">
<g id="cdr_x5F_object">
	<g>
		<g>
			<path fill-rule="evenodd" clip-rule="evenodd" fill="#3AA648" d="M345.1,163.8l-8.2,14.8v-10.1c0-1-0.1-1.7-0.2-2.4
				c-0.1-0.6-0.3-1.1-0.6-1.4c-0.3-0.4-0.6-0.6-1.1-0.7c-0.5-0.1-1-0.2-1.7-0.2h-3.3v0.8h0.6c1.2,0,1.9,0.4,2.2,1.1
				c0.3,0.7,0.5,1.7,0.5,2.8v13.7h3.5l8.2-14.8v14.8h3.5v-18.3H345.1z M327.6,180.3c-0.2-0.5-0.4-1.2-0.6-1.9s-0.2-1.4-0.2-2.1
				l0-12.5h-3.5l-5.8,12.9l-5.9-12.9h-3.7v18.3h1.6v-14.6l6.6,14.6h0.8l6.4-14.2v8.4c0,1,0.1,1.9,0.3,2.7c0.2,0.8,0.6,1.5,1.1,2.1
				c0.5,0.6,1.2,1,2,1.3c0.8,0.3,1.8,0.5,3.1,0.5v-0.8c-0.4,0-0.8-0.2-1.2-0.5C328.1,181.3,327.8,180.9,327.6,180.3z M299.7,176.2
				c-0.2,1-0.5,1.8-0.9,2.5c-0.4,0.7-0.9,1.3-1.5,1.7c-0.6,0.4-1.4,0.6-2.2,0.6c-0.6,0-1.2-0.1-1.9-0.4c-0.6-0.2-1.3-0.5-1.9-0.8
				v-12.5c0.2-0.3,0.4-0.6,0.7-0.9c0.3-0.3,0.6-0.5,0.9-0.8c0.3-0.2,0.7-0.4,1.1-0.5c0.4-0.1,0.9-0.2,1.4-0.2c0.8,0,1.4,0.2,2,0.6
				c0.6,0.4,1,1,1.4,1.7c0.4,0.7,0.7,1.6,0.8,2.5c0.2,1,0.3,2,0.3,3.1C300,174.1,299.9,175.2,299.7,176.2z M301.9,166.3
				c-0.6-0.9-1.3-1.5-2.2-2c-0.9-0.5-1.9-0.8-3.1-0.8c-1.5,0-2.6,0.2-3.4,0.7c-0.8,0.5-1.4,0.9-1.8,1.4h-0.2c-0.2-0.6-0.6-1-1.1-1.3
				c-0.5-0.3-1.3-0.4-2.2-0.4h-3.5v0.8h0.8c1.2,0,1.9,0.4,2.2,1.1c0.3,0.7,0.5,1.7,0.5,2.8v21.1h3.5v-8.2c0.6,0.3,1.3,0.6,2.1,0.8
				c0.8,0.2,1.7,0.4,2.8,0.4c1.3,0,2.4-0.3,3.3-0.8c0.9-0.5,1.7-1.2,2.3-2c0.6-0.9,1.1-1.9,1.4-3c0.3-1.2,0.5-2.4,0.5-3.7
				c0-1.3-0.2-2.6-0.5-3.7C302.9,168.1,302.5,167.1,301.9,166.3z M271.5,172c0-1,0.1-1.9,0.3-2.8c0.2-0.9,0.5-1.6,0.9-2.2
				c0.4-0.6,0.8-1.1,1.3-1.5c0.5-0.4,1-0.5,1.6-0.5c1.4,0,2.4,0.6,3.1,1.8c0.7,1.2,1,2.9,1,5.2H271.5z M275.6,163.5
				c-1.2,0-2.3,0.3-3.3,0.8c-1,0.5-1.8,1.2-2.5,2c-0.7,0.9-1.2,1.9-1.5,3c-0.4,1.2-0.5,2.4-0.5,3.7c0,1.3,0.2,2.6,0.5,3.7
				c0.3,1.2,0.9,2.2,1.5,3c0.7,0.9,1.5,1.5,2.6,2c1,0.5,2.2,0.8,3.6,0.8c1.5,0,2.8-0.3,4-0.9c1.2-0.6,2.2-1.7,3.1-3.2l-0.8-0.6
				c-0.7,1-1.4,1.8-2.3,2.3c-0.8,0.5-1.9,0.8-3.2,0.8c-0.8,0-1.6-0.2-2.2-0.5c-0.7-0.4-1.2-0.9-1.7-1.5c-0.5-0.7-0.8-1.4-1-2.4
				c-0.2-0.9-0.4-1.9-0.4-3h11.8l0.1-1.6c0-2.8-0.6-4.9-1.9-6.4C280.2,164.2,278.3,163.5,275.6,163.5z M259.5,178.7
				c-0.9,1.4-2.4,2.3-4.3,2.5v-16.4c2,0.2,3.4,1,4.3,2.5c0.9,1.4,1.4,3.3,1.4,5.7C260.9,175.4,260.4,177.3,259.5,178.7z
				 M251.7,181.2c-2-0.2-3.4-1-4.3-2.5c-0.9-1.4-1.4-3.3-1.4-5.7c0-2.4,0.5-4.3,1.4-5.7c0.9-1.4,2.4-2.3,4.3-2.5V181.2z
				 M262.2,166.3c-0.8-0.9-1.8-1.5-2.9-2c-1.2-0.5-2.5-0.8-4.1-0.8v-2.3c0-1-0.1-1.7-0.2-2.4c-0.1-0.6-0.3-1.1-0.6-1.4
				c-0.3-0.4-0.6-0.6-1.1-0.7c-0.5-0.1-1-0.2-1.7-0.2h-3.3v0.8h0.6c1.2,0,1.9,0.4,2.2,1.1c0.3,0.7,0.5,1.7,0.5,2.8v2.3
				c-1.6,0.1-2.9,0.3-4.1,0.8c-1.2,0.5-2.1,1.2-2.9,2c-0.8,0.9-1.4,1.9-1.8,3c-0.4,1.1-0.6,2.4-0.6,3.7c0,1.3,0.2,2.6,0.6,3.7
				c0.4,1.1,1,2.1,1.8,3c0.8,0.9,1.8,1.5,2.9,2c1.2,0.5,2.5,0.8,4.1,0.8v7h3.5v-7c1.6-0.1,2.9-0.3,4.1-0.8c1.2-0.5,2.1-1.2,2.9-2
				c0.8-0.9,1.4-1.9,1.8-3c0.4-1.1,0.6-2.4,0.6-3.7c0-1.3-0.2-2.6-0.6-3.7C263.6,168.2,263,167.2,262.2,166.3z M226.1,161.5
				c0.5,0,1-0.2,1.3-0.5c0.3-0.3,0.5-0.7,0.5-1.3c0-0.7-0.2-1.3-0.6-1.8c-0.4-0.5-0.9-0.7-1.5-0.7c-0.5,0-1,0.2-1.3,0.5
				c-0.3,0.3-0.5,0.7-0.5,1.3c0,0.7,0.2,1.3,0.6,1.8C225,161.3,225.5,161.5,226.1,161.5z M227.4,164.7c-0.3-0.4-0.6-0.6-1.1-0.7
				c-0.5-0.1-1-0.2-1.7-0.2h-3.5v0.8h0.8c1.2,0,1.9,0.4,2.2,1.1c0.3,0.7,0.5,1.7,0.5,2.8l0,13.7h3.5v-13.7c0-1-0.1-1.7-0.2-2.4
				C227.8,165.6,227.6,165.1,227.4,164.7z M218.4,180.3c-0.3-0.7-0.5-1.7-0.5-2.8v-13.6h-3.5v8.4h-7.8v-3.7c0-1-0.1-1.7-0.2-2.4
				c-0.1-0.6-0.3-1.1-0.6-1.4c-0.3-0.4-0.6-0.6-1.1-0.7c-0.5-0.1-1-0.2-1.7-0.2h-3.3v0.8h0.6c1.2,0,1.9,0.4,2.2,1.1
				c0.3,0.7,0.5,1.7,0.5,2.8v13.7h3.5v-8.4h7.8v3.7c0,1,0,1.8,0.2,2.4c0.1,0.6,0.3,1.1,0.6,1.4c0.3,0.4,0.6,0.6,1.1,0.7
				c0.5,0.1,1,0.2,1.7,0.2h3.3v-0.8h-0.6C219.5,181.4,218.8,181,218.4,180.3z M193.6,179.9c-0.8,0.6-2,0.9-3.6,0.9
				c-0.4,0-0.8,0-1.3-0.1c-0.5-0.1-0.9-0.2-1.2-0.3v-7h2.1c3.5,0,5.3,1.2,5.3,3.7C194.9,178.4,194.5,179.3,193.6,179.9z
				 M187.5,165.6c0.3-0.1,0.7-0.2,1.2-0.3c0.5-0.1,1-0.1,1.3-0.1c1.2,0,2.1,0.3,2.9,0.8c0.8,0.6,1.2,1.4,1.2,2.5
				c0,1.1-0.4,1.9-1.2,2.5c-0.8,0.6-1.9,0.8-3.3,0.8h-2.1V165.6z M193.9,172.6c1.4-0.3,2.4-0.8,3-1.4c0.6-0.7,0.9-1.6,0.9-2.7
				c0-0.9-0.2-1.6-0.6-2.2c-0.4-0.6-0.9-1.1-1.6-1.4c-0.7-0.4-1.5-0.6-2.4-0.8c-0.9-0.2-1.8-0.2-2.8-0.2h-9.6v0.8h0.4
				c1.2,0,1.9,0.4,2.2,1.1c0.3,0.7,0.5,1.7,0.5,2.8v13.7h6.4c1.2,0,2.3-0.1,3.3-0.2c1-0.2,1.9-0.4,2.6-0.8c0.7-0.4,1.3-0.9,1.7-1.6
				c0.4-0.6,0.6-1.5,0.6-2.5c0-1.2-0.4-2.1-1.2-2.9C196.6,173.4,195.4,172.9,193.9,172.6z M166.3,178.7v-10.1c0-1-0.1-1.7-0.2-2.4
				c-0.1-0.6-0.3-1.1-0.6-1.4c-0.3-0.4-0.6-0.6-1.1-0.7c-0.5-0.1-1-0.2-1.7-0.2h-3.3v0.8h0.6c1.2,0,1.9,0.4,2.2,1.1
				c0.3,0.7,0.5,1.7,0.5,2.8v13.7h3.5l8.2-14.8v14.8h3.5v-18.3h-3.5L166.3,178.7z M154.9,180.2c-0.9,0.5-2,0.8-3.4,0.8
				c-1,0-1.8-0.2-2.5-0.6s-1.3-1-1.8-1.7c-0.5-0.7-0.8-1.6-1-2.5c-0.2-1-0.3-2-0.3-3.1c0-1.1,0.1-2.2,0.3-3.1c0.2-1,0.6-1.8,1-2.5
				c0.5-0.7,1.1-1.3,1.8-1.7c0.7-0.4,1.5-0.6,2.5-0.6c1.4,0,2.5,0.4,3.5,1.2c0.9,0.8,1.5,2,1.6,3.7h0.8c0-0.7,0-1.4,0-1.9
				c0-0.5,0-1-0.1-1.4c-0.1-0.4-0.2-0.7-0.3-1c-0.1-0.3-0.3-0.5-0.6-0.8c-0.5-0.5-1.2-0.8-2.2-1.1c-0.9-0.2-2.1-0.3-3.5-0.3
				c-1.5,0-2.7,0.3-3.8,0.8c-1.1,0.5-2,1.2-2.7,2c-0.7,0.9-1.2,1.9-1.6,3c-0.4,1.2-0.5,2.4-0.5,3.7c0,1.3,0.2,2.6,0.5,3.7
				c0.4,1.2,0.9,2.2,1.6,3c0.7,0.9,1.6,1.5,2.7,2c1.1,0.5,2.3,0.8,3.8,0.8c1.6,0,2.9-0.3,4.1-0.9c1.2-0.6,2.2-1.7,3.1-3.2l-0.8-0.6
				C156.5,178.9,155.8,179.6,154.9,180.2z M127.1,172c0-1,0.1-1.9,0.3-2.8s0.5-1.6,0.9-2.2c0.4-0.6,0.8-1.1,1.3-1.5
				c0.5-0.4,1-0.5,1.6-0.5c1.4,0,2.4,0.6,3.1,1.8c0.7,1.2,1,2.9,1,5.2H127.1z M131.2,163.5c-1.2,0-2.3,0.3-3.3,0.8
				c-1,0.5-1.8,1.2-2.5,2c-0.7,0.9-1.2,1.9-1.5,3c-0.4,1.2-0.5,2.4-0.5,3.7c0,1.3,0.2,2.6,0.5,3.7c0.3,1.2,0.9,2.2,1.5,3
				c0.7,0.9,1.5,1.5,2.6,2c1,0.5,2.2,0.8,3.6,0.8c1.5,0,2.8-0.3,4-0.9c1.2-0.6,2.2-1.7,3.1-3.2l-0.8-0.6c-0.7,1-1.4,1.8-2.3,2.3
				c-0.8,0.5-1.9,0.8-3.2,0.8c-0.8,0-1.6-0.2-2.2-0.5c-0.7-0.4-1.2-0.9-1.7-1.5c-0.5-0.7-0.8-1.4-1-2.4c-0.2-0.9-0.4-1.9-0.4-3h11.8
				l0.1-1.6c0-2.8-0.6-4.9-1.9-6.4C135.8,164.2,133.8,163.5,131.2,163.5z M116.2,176.2c-0.2,1-0.5,1.8-0.9,2.5
				c-0.4,0.7-0.9,1.3-1.5,1.7s-1.4,0.6-2.2,0.6c-0.6,0-1.2-0.1-1.9-0.4c-0.6-0.2-1.3-0.5-1.9-0.8v-12.5c0.2-0.3,0.4-0.6,0.7-0.9
				c0.3-0.3,0.6-0.5,0.9-0.8c0.3-0.2,0.7-0.4,1.1-0.5c0.4-0.1,0.9-0.2,1.4-0.2c0.8,0,1.4,0.2,2,0.6c0.6,0.4,1,1,1.4,1.7
				c0.4,0.7,0.7,1.6,0.8,2.5c0.2,1,0.3,2,0.3,3.1C116.5,174.1,116.4,175.2,116.2,176.2z M118.4,166.3c-0.6-0.9-1.3-1.5-2.2-2
				c-0.9-0.5-1.9-0.8-3.1-0.8c-1.5,0-2.6,0.2-3.4,0.7c-0.8,0.5-1.4,0.9-1.8,1.4h-0.2c-0.2-0.6-0.6-1-1.1-1.3
				c-0.5-0.3-1.3-0.4-2.2-0.4h-3.5v0.8h0.8c1.2,0,1.9,0.4,2.2,1.1c0.3,0.7,0.5,1.7,0.5,2.8v21.1h3.5v-8.2c0.6,0.3,1.3,0.6,2.1,0.8
				s1.7,0.4,2.8,0.4c1.3,0,2.4-0.3,3.3-0.8c0.9-0.5,1.7-1.2,2.3-2c0.6-0.9,1.1-1.9,1.4-3c0.3-1.2,0.4-2.4,0.4-3.7
				c0-1.3-0.2-2.6-0.4-3.7C119.4,168.1,119,167.1,118.4,166.3z M98.5,164.8c-0.2-0.3-0.5-0.5-0.9-0.7c-0.4-0.2-0.9-0.3-1.4-0.3H83.3
				v0.8h0.4c1.2,0,1.9,0.4,2.2,1.1c0.3,0.7,0.5,1.7,0.5,2.8v13.7h3.5v-16.8h4.3c1.2,0,2.1,0.3,2.9,1c0.8,0.7,1.2,1.6,1.2,2.9h0.8
				V167c0-0.4,0-0.8-0.1-1.1C98.9,165.4,98.7,165.1,98.5,164.8z M78,176.2c-0.2,1-0.6,1.8-1,2.5c-0.4,0.7-0.9,1.3-1.5,1.7
				c-0.6,0.4-1.3,0.6-2,0.6c-0.7,0-1.4-0.2-2-0.6c-0.6-0.4-1.1-1-1.5-1.7c-0.4-0.7-0.8-1.6-1-2.5c-0.2-1-0.4-2-0.4-3.1
				c0-1.1,0.1-2.2,0.4-3.1c0.2-1,0.6-1.8,1-2.5c0.4-0.7,0.9-1.3,1.5-1.7c0.6-0.4,1.3-0.6,2-0.6c0.7,0,1.4,0.2,2,0.6
				c0.6,0.4,1.1,1,1.5,1.7c0.4,0.7,0.8,1.6,1,2.5c0.2,1,0.4,2,0.4,3.1C78.4,174.1,78.2,175.2,78,176.2z M79.8,166.3
				c-0.7-0.9-1.6-1.5-2.7-2c-1.1-0.5-2.3-0.8-3.6-0.8c-1.4,0-2.6,0.3-3.6,0.8c-1.1,0.5-1.9,1.2-2.7,2c-0.7,0.9-1.3,1.9-1.7,3
				c-0.4,1.2-0.6,2.4-0.6,3.7c0,1.3,0.2,2.6,0.6,3.7c0.4,1.2,0.9,2.2,1.7,3c0.7,0.9,1.6,1.5,2.7,2c1.1,0.5,2.3,0.8,3.6,0.8
				c1.4,0,2.6-0.3,3.6-0.8c1.1-0.5,2-1.2,2.7-2c0.7-0.9,1.3-1.9,1.7-3c0.4-1.2,0.6-2.4,0.6-3.7c0-1.3-0.2-2.6-0.6-3.7
				C81.1,168.1,80.6,167.1,79.8,166.3z M57.7,176.2c-0.2,1-0.5,1.8-0.9,2.5c-0.4,0.7-0.9,1.3-1.5,1.7S54,181,53.1,181
				c-0.6,0-1.2-0.1-1.9-0.4c-0.6-0.2-1.3-0.5-1.9-0.8v-12.5c0.2-0.3,0.4-0.6,0.7-0.9c0.3-0.3,0.6-0.5,0.9-0.8
				c0.3-0.2,0.7-0.4,1.1-0.5c0.4-0.1,0.9-0.2,1.4-0.2c0.8,0,1.4,0.2,2,0.6c0.6,0.4,1,1,1.4,1.7c0.4,0.7,0.6,1.6,0.8,2.5
				c0.2,1,0.3,2,0.3,3.1C58,174.1,57.9,175.2,57.7,176.2z M59.9,166.3c-0.6-0.9-1.3-1.5-2.2-2c-0.9-0.5-1.9-0.8-3.1-0.8
				c-1.5,0-2.6,0.2-3.4,0.7c-0.8,0.5-1.4,0.9-1.8,1.4h-0.2c-0.2-0.6-0.6-1-1.1-1.3c-0.5-0.3-1.3-0.4-2.2-0.4h-3.5v0.8h0.8
				c1.2,0,1.9,0.4,2.2,1.1c0.3,0.7,0.5,1.7,0.5,2.8v21.1h3.5v-8.2c0.6,0.3,1.3,0.6,2.1,0.8c0.8,0.2,1.7,0.4,2.8,0.4
				c1.3,0,2.4-0.3,3.3-0.8c0.9-0.5,1.7-1.2,2.3-2s1.1-1.9,1.4-3c0.3-1.2,0.4-2.4,0.4-3.7c0-1.3-0.2-2.6-0.4-3.7
				C60.9,168.1,60.5,167.1,59.9,166.3z M17.1,157.2h0.8c1.2,0,1.9,0.4,2.2,1.1c0.3,0.7,0.5,1.7,0.5,2.8v21.1h3.5V158h11.7v24.2h3.5
				v-25.7H17.1V157.2z"/>
			<g>
				<path fill-rule="evenodd" clip-rule="evenodd" fill="#ACCD93" d="M180.3,76.6c-7.1-7.1-18.6-7.1-25.7,0
					c-7.1,7.1-7.1,18.6,0,25.7c7.1,7.1,18.6,7.1,25.7,0C187.3,95.2,187.3,83.7,180.3,76.6z"/>
				<circle fill-rule="evenodd" clip-rule="evenodd" fill="#ACCD93" cx="164.8" cy="35.5" r="18.2"/>
				<circle fill-rule="evenodd" clip-rule="evenodd" fill="#3AA648" cx="218.8" cy="38" r="18.2"/>
				<circle fill-rule="evenodd" clip-rule="evenodd" fill="#2D683F" cx="221.4" cy="92" r="18.2"/>
				<path fill-rule="evenodd" clip-rule="evenodd" fill="#74B95B" d="M154.6,102.3c-7.1-7.1-7.1-18.6,0-25.7L134,97.1
					c-7.1,7.1-7.1,18.6,0,25.7c7.1,7.1,18.6,7.1,25.7,0l20.5-20.5C173.2,109.4,161.7,109.4,154.6,102.3z"/>
				<path fill-rule="evenodd" clip-rule="evenodd" fill="#74B95B" d="M152,48.3c-7.1-7.1-7.1-18.6,0-25.7l-20.5,20.5
					c-7.1,7.1-7.1,18.6,0,25.7c7.1,7.1,18.6,7.1,25.7,0l20.6-20.5C170.6,55.4,159.1,55.4,152,48.3z"/>
				<path fill-rule="evenodd" clip-rule="evenodd" fill="#74B95B" d="M205.9,50.9c-7.1-7.1-7.1-18.6,0-25.7l-20.5,20.5
					c-7.1,7.1-7.1,18.6,0,25.7c7.1,7.1,18.6,7.1,25.7,0l20.5-20.5C224.5,58,213,58,205.9,50.9z"/>
				<path fill-rule="evenodd" clip-rule="evenodd" fill="#74B95B" d="M208.5,104.8c-7.1-7.1-7.1-18.6,0-25.7L188,99.7
					c-7.1,7.1-7.1,18.6,0,25.7c7.1,7.1,18.6,7.1,25.7,0l20.6-20.5C227.1,111.9,215.6,111.9,208.5,104.8z"/>
			</g>
		</g>
	</g>
</g>
<g id="MasterLayer_1">
</g>
</svg>
